<svg xmlns="http://www.w3.org/2000/svg" width="790" height="620" viewBox="0 0.5 790 620"><g fill="#FFF"><path d="M32.506 604.506h-13.5v-59.25h13.5l23.75 37v-37h13.5v59.25h-13.5l-23.75-37v37zM173.756 556.756h-20.5v11.5h19.5v12h-19.5v12h20.5v12h-34v-59.25h34v11.75zM238.756 545.006h41.75v12h-14v47.25h-13.5v-47.25h-14l-.25-12zM383.006 571.256l-9.5 33.25h-15l-16.75-59.25h14.75l10 41h.25l10.75-41h10l10.75 41h1l10-41h15l-16.75 59.25h-15l-9.5-33.25zM513.756 544.006c16.5 0 30 13.5 30 30.5 0 17.5-12.75 30.75-30 30.75-17.75 0-30-13.5-30-30.75s13.5-30.5 30-30.5zm0 48.25c10.75 0 15.25-8.75 15.25-17.75 0-8.5-5-17.75-15.25-17.75-10.5 0-15.25 8.75-15.25 17.75s4.25 17.75 15.25 17.75zM632.006 545.006c11 0 19.5 6 19.5 17.75 0 8.75-5 15-12.25 17l20.5 24.75h-17l-18-23.5v23.5h-13.5v-59.25l20.75-.25zm-6.25 26.5c5.25 0 11-.25 11-8s-6-8-11-8h-1.5V571.5M758.756 604.506l-22-25.25v25.25h-13.5v-59.25h13.5v24.5l20.5-24.5h16.5l-24.25 28 27.5 31.25h-18.25zM710.256 285.007c1.75 21.5-5 41.75-18.75 57.25-14.75 16.5-36.75 25.5-61.5 25.5H92.756c-21.75-.25-42.25-8.75-57.5-24-16.25-16-25-37.5-25.25-60.25 0-42.25 28.75-76.5 68-83 5.25-35.25 36-64 74-70 2.25-14 9-27.5 19.75-38.5 15.5-16 36.5-25 58-25 27.75 0 52 15 65 37.5 15.25-54.5 65.25-94.5 124.5-94.5 64.75 0 118.75 47.999 127.75 110.499 32.5-24.249 75.75-22 108.25 8.501l-3.5-3c26 21 35 49.5 33.75 73.5-.75 14.25-5.5 26.75-14 37 8.25 2.75 15 7.5 21.5 14 9 9 15.25 20.25 17 32.75 0 .5 0 1 .25 1.75 0-.75 0-.5 0 0zm40.25-201.751c-19-25.75-47.25-44.75-78.25-52.75-7-1.5-14.25 3.25-15.75 10-2.75 7 1.75 16 9.25 17.5 31.25 8.25 58.25 30.25 72.5 59.25 11.75 23.75 14.75 51.75 8.25 77.5-1.75 7.25 3.5 15 11 16 6.75 2 14.25-2 16.5-8.5 10.25-40.25 1.5-85.5-23.5-119zm-89.25-4c-10.75-2-19 11.25-14.25 20.5 1.75 4 5.75 6.75 10 7.75 16.25 4.249 30.5 15.499 38 30.499 6.75 13.251 8.25 28.75 4.5 43-2 7.25 3.25 15.25 10.75 16.5 6.75 2 14.75-2 16.75-9 7-25.5 1.75-54-13.75-75.25-12.5-16.999-31.25-29.999-52-33.999z"/><g><path d="M10.256 412.256h69.25v19.75h-23.5v78.75h-22.5v-78.75h-23.5l.25-19.75zM115.006 511.006h-22.5v-98.75h22.5v39.5h31.75v-39.5h22.5v98.75h-22.5v-39.75h-31.75v39.75zM244.756 432.256h-33.75v19.5h32.5v19.75h-32.5v19.75h34v19.75h-56.75v-98.75h56.5v20zM288.006 412.256h69.25v19.75h-23.5v78.75h-22.5v-78.75h-23.5l.25-19.75zM392.756 511.006h-22.5v-98.75h22.5v39.5h31.75v-39.5h22.5v98.75h-22.5v-39.75h-31.75v39.75zM488.756 511.006h-22.5v-98.75h22.5v98.75zM530.256 511.006h-22.5v-98.75h22.5l39 61h.25v-61h22.5v98.75h-22.5l-39-61h-.25v61zM700.506 477.006c-5.5 25-26.5 35.75-45.75 35.75-26.5 0-48-23-48-51 0-28.5 20.5-51 48-51 17.5 0 29.25 6.5 38 16.75l-14.75 16.25c-5.75-9.25-13.25-12.5-22-12.5-13.75 0-25 13.75-25 30.75 0 16.75 11.25 30.25 25 30.25 10.75 0 21.5-7 21.5-19h-22.5v-17.5h45.5v21.25zM779.756 420.006l-9.25 18s-9.75-6.75-19.75-6.75c-7.75 0-11.5 3.25-11.5 8.75s9.5 9.5 20.5 14.25c11 4.5 23.25 14 23.25 27 0 23.5-18 31.75-37.25 31.75-23.25 0-37-13.25-37-13.25l11.25-19s13.25 11 24.25 11c5 0 14.25-.5 14.25-9.75 0-7-10.5-10.5-22.25-16.25-12-5.75-18.75-15-18.75-25.25 0-18.25 16.25-30.25 32-30.25 17.5.25 30.25 9.75 30.25 9.75z"/></g></g></svg>